<svg viewBox="0 0 128 128" aria-hidden="true">
      <path d="M22 30l20 10" stroke="#111" stroke-width="4.5" fill="none" stroke-linecap="round"/>
      <path d="M86 40l20-10" stroke="#111" stroke-width="4.5" fill="none" stroke-linecap="round"/>
      <path d="M22 60c4-8 13-10 20-4" stroke="#111" stroke-width="5" fill="none" stroke-linecap="round"/>
      <path d="M86 56c7-6 16-4 20 4" stroke="#111" stroke-width="5" fill="none" stroke-linecap="round"/>
      <rect x="16" y="84" width="26" height="17" rx="8.5" fill="#f2a0a5"/>
      <rect x="86" y="84" width="26" height="17" rx="8.5" fill="#f2a0a5"/>
      <g class="mouth">
        <path d="M50 84h28c2 0 4 2 4 4v7c0 5-4 9-9 9H55c-5 0-9-4-9-9v-7c0-2 2-4 4-4z" fill="#111"/>
        <path d="M56 92h16" stroke="#fff" stroke-width="3" stroke-linecap="round"/>
      </g>
    </svg>
