<svg viewBox="0 0 128 128" aria-hidden="true">
      <path d="M19 46c8-6 16-6 24 0" stroke="#111" stroke-width="4.5" fill="none" stroke-linecap="round"/>
      <path d="M85 46c8-6 16-6 24 0" stroke="#111" stroke-width="4.5" fill="none" stroke-linecap="round"/>
      <path d="M24 56c5 5 13 5 18 0" stroke="#111" stroke-width="4.5" fill="none" stroke-linecap="round"/>
      <path d="M86 56c5 5 13 5 18 0" stroke="#111" stroke-width="4.5" fill="none" stroke-linecap="round"/>
      <rect x="16" y="84" width="26" height="17" rx="8.5" fill="#f2a0a5"/>
      <rect x="86" y="84" width="26" height="17" rx="8.5" fill="#f2a0a5"/>
      <g class="mouth">
        <path d="M50 84h28c2 0 4 2 4 4v7c0 5-4 9-9 9H55c-5 0-9-4-9-9v-7c0-2 2-4 4-4z" fill="#111"/>
        <path d="M55 95h18c-2 4-5 6-9 6s-7-2-9-6z" fill="#f44336"/>
      </g>
    </svg>
