<svg viewBox="0 0 128 128" aria-hidden="true">
      <path d="M22 30c6-8 14-8 20 0" stroke="#111" stroke-width="4.5" fill="none" stroke-linecap="round"/>
      <path d="M86 30c6-8 14-8 20 0" stroke="#111" stroke-width="4.5" fill="none" stroke-linecap="round"/>
      <path d="M22 56c5 5 13 5 18 0" stroke="#111" stroke-width="4.5" fill="none" stroke-linecap="round"/>
      <path d="M88 56c5 5 13 5 18 0" stroke="#111" stroke-width="4.5" fill="none" stroke-linecap="round"/>
      <path d="M22 52l-4 4" stroke="#111" stroke-width="3.5" fill="none" stroke-linecap="round"/>
      <path d="M40 52l4 4" stroke="#111" stroke-width="3.5" fill="none" stroke-linecap="round"/>
      <path d="M86 52l-4 4" stroke="#111" stroke-width="3.5" fill="none" stroke-linecap="round"/>
      <path d="M104 52l4 4" stroke="#111" stroke-width="3.5" fill="none" stroke-linecap="round"/>
      <rect x="16" y="84" width="26" height="17" rx="8.5" fill="#f2a0a5"/>
      <rect x="86" y="84" width="26" height="17" rx="8.5" fill="#f2a0a5"/>
      <g class="mouth">
        <path d="M49 90c5 6 25 6 30 0" stroke="#111" stroke-width="4.5" fill="none" stroke-linecap="round"/>
      </g>
    </svg>
