<svg viewBox="0 0 128 128" aria-hidden="true">
      <path d="M22 30c6-8 14-8 20 0" stroke="#111" stroke-width="4.5" fill="none" stroke-linecap="round"/>
      <path d="M86 30c6-8 14-8 20 0" stroke="#111" stroke-width="4.5" fill="none" stroke-linecap="round"/>
      <ellipse cx="32" cy="55" rx="10.5" ry="15" fill="#111"/><circle cx="35" cy="50" r="3.8" fill="#fff"/><circle cx="29" cy="58" r="1.9" fill="#fff"/>
      <ellipse cx="96" cy="55" rx="10.5" ry="15" fill="#111"/><circle cx="99" cy="50" r="3.8" fill="#fff"/><circle cx="93" cy="58" r="1.9" fill="#fff"/>
      <rect x="16" y="84" width="26" height="17" rx="8.5" fill="#f2a0a5"/>
      <rect x="86" y="84" width="26" height="17" rx="8.5" fill="#f2a0a5"/>
      <g class="mouth">
        <path d="M52 82h24c2 0 4 2 4 4v8c0 5-4 9-9 9H57c-5 0-9-4-9-9v-8c0-2 2-4 4-4z" fill="#111"/>
        <path d="M55 95h18c-2 4-5 6-9 6s-7-2-9-6z" fill="#f44336"/>
      </g>
    </svg>
